<svg width="17" height="30" viewBox="0 0 17 30" fill="none" xmlns="http://www.w3.org/2000/svg">
<path d="M15.7131 27.9177L3.11981 14.9987L15.7131 2.07967C15.9386 1.84885 16.0648 1.53899 16.0648 1.21634C16.0648 0.893678 15.9386 0.583822 15.7131 0.353002C15.6036 0.241239 15.4729 0.15245 15.3287 0.0918357C15.1844 0.0312214 15.0295 0 14.8731 0C14.7166 0 14.5617 0.0312214 14.4174 0.0918357C14.2732 0.15245 14.1425 0.241239 14.033 0.353002L0.633197 14.0966C0.397941 14.3379 0.266275 14.6616 0.266275 14.9987C0.266275 15.3357 0.397941 15.6594 0.633197 15.9008L14.0304 29.6444C14.14 29.7569 14.271 29.8464 14.4157 29.9074C14.5605 29.9685 14.716 30 14.8731 30C15.0301 30 15.1856 29.9685 15.3304 29.9074C15.4751 29.8464 15.6061 29.7569 15.7157 29.6444C15.9412 29.4135 16.0674 29.1037 16.0674 28.781C16.0674 28.4584 15.9412 28.1485 15.7157 27.9177H15.7131Z" fill="#4E4E4E"/>
</svg>
