<svg width="16" height="30" viewBox="0 0 16 30" fill="none" xmlns="http://www.w3.org/2000/svg">
<path d="M0.354015 2.08232L12.9473 15.0013L0.354015 27.9203C0.12856 28.1511 0.00234051 28.461 0.00234051 28.7837C0.00234051 29.1063 0.12856 29.4162 0.354015 29.647C0.46352 29.7588 0.594223 29.8475 0.738473 29.9082C0.882723 29.9688 1.03762 30 1.19409 30C1.35055 30 1.50545 29.9688 1.6497 29.9082C1.79395 29.8475 1.92465 29.7588 2.03416 29.647L15.4339 15.9034C15.6692 15.6621 15.8009 15.3384 15.8009 15.0013C15.8009 14.6643 15.6692 14.3406 15.4339 14.0992L2.03674 0.355646C1.92716 0.243093 1.79613 0.153635 1.6514 0.0925522C1.50667 0.0314693 1.35118 0 1.19409 0C1.037 0 0.881497 0.0314693 0.736769 0.0925522C0.592041 0.153635 0.461016 0.243093 0.351429 0.355646C0.125974 0.586466 -0.000244141 0.896324 -0.000244141 1.21898C-0.000244141 1.54164 0.125974 1.8515 0.351429 2.08232H0.354015Z" fill="#4E4E4E"/>
</svg>
