<svg width="8" height="10" viewBox="0 0 8 10" fill="none" xmlns="http://www.w3.org/2000/svg">
<path d="M3.76626 2.53338C3.44223 2.53338 3.12547 2.62946 2.85605 2.80949C2.58662 2.98951 2.37663 3.24538 2.25263 3.54475C2.12863 3.84412 2.09618 4.17354 2.1594 4.49134C2.22262 4.80915 2.37865 5.10108 2.60778 5.3302C2.83691 5.55933 3.12883 5.71537 3.44664 5.77858C3.76445 5.8418 4.09386 5.80935 4.39323 5.68535C4.6926 5.56135 4.94847 5.35136 5.12849 5.08193C5.30852 4.81251 5.40461 4.49575 5.40461 4.17172C5.40411 3.73735 5.23134 3.32092 4.9242 3.01378C4.61706 2.70664 4.20063 2.53387 3.76626 2.53338ZM3.76626 4.91642C3.61897 4.91642 3.47499 4.87274 3.35253 4.79092C3.23006 4.70909 3.13461 4.59278 3.07825 4.4567C3.02188 4.32063 3.00714 4.17089 3.03587 4.02644C3.0646 3.88198 3.13553 3.74928 3.23968 3.64514C3.34383 3.54099 3.47652 3.47006 3.62098 3.44133C3.76544 3.41259 3.91517 3.42734 4.05125 3.4837C4.18732 3.54007 4.30363 3.63552 4.38546 3.75799C4.46729 3.88045 4.51096 4.02443 4.51096 4.17172C4.51096 4.36923 4.4325 4.55864 4.29285 4.6983C4.15319 4.83796 3.96377 4.91642 3.76626 4.91642ZM3.76626 0.746094C2.85803 0.747079 1.98728 1.10831 1.34507 1.75052C0.702852 2.39274 0.341623 3.26349 0.340637 4.17172C0.340637 7.05222 3.38051 9.21335 3.51009 9.30383C3.58518 9.35637 3.67461 9.38456 3.76626 9.38456C3.85791 9.38456 3.94735 9.35637 4.02244 9.30383C4.59819 8.87951 5.12496 8.39246 5.59301 7.85166C6.63895 6.65046 7.19189 5.37702 7.19189 4.17172C7.1909 3.26349 6.82967 2.39274 6.18746 1.75052C5.54524 1.10831 4.67449 0.747079 3.76626 0.746094ZM4.93172 7.25143C4.5767 7.65924 4.18673 8.03525 3.76626 8.37519C3.3458 8.03525 2.95583 7.65924 2.60081 7.25143C1.97898 6.53131 1.23428 5.41202 1.23428 4.17172C1.23428 3.5002 1.50104 2.85618 1.97588 2.38134C2.45072 1.9065 3.09474 1.63974 3.76626 1.63974C4.43779 1.63974 5.08181 1.9065 5.55665 2.38134C6.03149 2.85618 6.29825 3.5002 6.29825 4.17172C6.29825 5.41202 5.55355 6.53131 4.93172 7.25143Z" fill="#AAAAAA"/>
</svg>
