<svg width="14" height="11" viewBox="0 0 14 11" fill="none" xmlns="http://www.w3.org/2000/svg">
<path d="M7.31006 10.8387C7.25892 10.7876 7.21836 10.727 7.19068 10.6602C7.16301 10.5934 7.14876 10.5219 7.14876 10.4496C7.14876 10.3773 7.16301 10.3058 7.19068 10.239C7.21836 10.1722 7.25892 10.1116 7.31006 10.0605L11.3213 6.0499L0.549636 6.0499C0.403777 6.0499 0.263891 5.99196 0.160753 5.88882C0.0576153 5.78568 -0.00032711 5.6458 -0.00032711 5.49994C-0.00032711 5.35408 0.0576153 5.21419 0.160753 5.11105C0.263891 5.00792 0.403777 4.94997 0.549636 4.94997L11.3213 4.94997L7.31006 0.939368C7.20686 0.836172 7.14889 0.696209 7.14889 0.550269C7.14889 0.404328 7.20686 0.264365 7.31006 0.16117C7.41325 0.0579745 7.55322 1.08734e-09 7.69916 0C7.8451 -1.08734e-09 7.98506 0.0579745 8.08825 0.16117L13.0379 5.11084C13.0891 5.16191 13.1296 5.22257 13.1573 5.28933C13.185 5.3561 13.1992 5.42766 13.1992 5.49994C13.1992 5.57221 13.185 5.64377 13.1573 5.71054C13.1296 5.7773 13.0891 5.83796 13.0379 5.88904L8.08825 10.8387C8.03718 10.8898 7.97652 10.9304 7.90976 10.9581C7.84299 10.9858 7.77143 11 7.69916 11C7.62688 11 7.55532 10.9858 7.48855 10.9581C7.42179 10.9304 7.36113 10.8898 7.31006 10.8387Z" fill="#AAAEB1"/>
</svg>
