<svg width="44" height="44" viewBox="0 0 44 44" fill="none" xmlns="http://www.w3.org/2000/svg">
<path d="M22.3081 0.539062C34.1857 0.539062 43.8138 10.1671 43.8138 22.0447C43.8138 33.9223 34.1857 43.5504 22.3081 43.5504C10.4305 43.5504 0.80246 33.9223 0.80246 22.0447C0.80246 10.1671 10.4305 0.539062 22.3081 0.539062ZM22.3081 30.647C21.7377 30.647 21.1907 30.8736 20.7874 31.2769C20.3841 31.6802 20.1575 32.2272 20.1575 32.7975C20.1575 33.3679 20.3841 33.9149 20.7874 34.3182C21.1907 34.7215 21.7377 34.9481 22.3081 34.9481C22.8785 34.9481 23.4255 34.7215 23.8288 34.3182C24.2321 33.9149 24.4587 33.3679 24.4587 32.7975C24.4587 32.2272 24.2321 31.6802 23.8288 31.2769C23.4255 30.8736 22.8785 30.647 22.3081 30.647ZM22.3081 10.2166C20.2405 10.2166 18.2576 11.0379 16.7957 12.4999C15.3337 13.9619 14.5123 15.9448 14.5123 18.0124C14.5123 18.5828 14.7389 19.1298 15.1422 19.5331C15.5455 19.9364 16.0925 20.163 16.6629 20.163C17.2332 20.163 17.7802 19.9364 18.1836 19.5331C18.5869 19.1298 18.8134 18.5828 18.8134 18.0124C18.8142 17.3781 18.9875 16.7559 19.3149 16.2126C19.6423 15.6693 20.1115 15.2253 20.672 14.9283C21.2325 14.6313 21.8633 14.4925 22.4967 14.5267C23.1301 14.561 23.7423 14.767 24.2675 15.1226C24.7928 15.4783 25.2113 15.9702 25.4783 16.5457C25.7452 17.1211 25.8505 17.7583 25.7828 18.3891C25.7152 19.0198 25.4771 19.6202 25.0942 20.1259C24.7113 20.6316 24.1979 21.0236 23.6092 21.2598C22.1554 21.8404 20.1575 23.3286 20.1575 25.8082V26.3458C20.1575 26.9162 20.3841 27.4632 20.7874 27.8665C21.1907 28.2698 21.7377 28.4964 22.3081 28.4964C22.8785 28.4964 23.4255 28.2698 23.8288 27.8665C24.2321 27.4632 24.4587 26.9162 24.4587 26.3458C24.4587 25.8211 24.5662 25.5587 25.02 25.3351L25.2071 25.2491C26.8863 24.5736 28.2782 23.335 29.1442 21.7456C30.0102 20.1563 30.2964 18.3152 29.9536 16.5379C29.6109 14.7607 28.6606 13.1581 27.2657 12.0047C25.8708 10.8514 24.1181 10.2192 22.3081 10.2166Z" fill="#CACACA"/>
</svg>
