<svg width="53" height="49" viewBox="0 0 53 49" fill="none" xmlns="http://www.w3.org/2000/svg">
<path d="M52.1611 14.5677C52.1611 12.787 50.7174 11.3432 48.9367 11.3432H43.4323C44.8568 9.93807 45.7685 8.0961 45.7685 5.82757C45.7685 3.0343 44.1643 0 39.6612 0C33.7361 0 28.7864 6.30884 26.4607 9.84537C24.1334 6.30964 19.0322 0.00080608 13.1078 0.00080608C8.60475 0.00080608 7.00054 3.03511 7.00054 5.82838C7.00054 8.09605 7.93727 9.93888 9.39074 11.344H3.79291C2.01215 11.344 0.568359 12.7878 0.568359 14.5685V24.2204H3.82113V45.2082C3.82113 46.989 5.26487 48.4328 7.04568 48.4328H45.7242C47.5049 48.4328 48.9487 46.989 48.9487 45.2082V24.2196H52.1612V14.5677H52.1611ZM39.6612 3.22536C41.6548 3.22536 42.544 4.06299 42.544 5.82843C42.544 9.4101 38.5463 11.3424 34.7865 11.3424H29.3281C31.6191 7.93966 35.6515 3.22536 39.6612 3.22536ZM13.1078 3.22541C17.1183 3.22541 21.3029 7.9397 23.594 11.3416H18.134C14.3742 11.3416 10.225 9.35931 10.225 5.77764C10.225 4.01301 11.1142 3.22541 13.1078 3.22541ZM48.9366 20.9951H27.977V14.5677H48.9366V20.9951ZM3.79286 14.5677H24.7525V20.9951H3.79286V14.5677ZM7.04563 24.2196H24.7525V45.2074H7.04563V24.2196ZM45.7249 45.2074H27.977V24.2196H45.7249V45.2074Z" fill="#9A9A9A"/>
</svg>
