<svg width="28" height="31" viewBox="0 0 28 31" fill="none" xmlns="http://www.w3.org/2000/svg">
<path fill-rule="evenodd" clip-rule="evenodd" d="M21.1154 0.785653C16.4292 -0.261884 11.5694 -0.261884 6.88319 0.785653L6.37825 0.897366C5.06006 1.19208 3.84938 1.84646 2.8807 2.78779C1.91201 3.72913 1.22325 4.92059 0.890914 6.22979C-0.296971 10.9106 -0.296971 15.814 0.890914 20.4948C1.20784 21.7434 1.84927 22.886 2.75016 23.8068C3.65106 24.7275 4.77939 25.3937 6.02077 25.7378L6.71339 29.8727C6.7355 30.004 6.7924 30.127 6.87818 30.2288C6.96395 30.3307 7.07546 30.4076 7.20109 30.4517C7.32672 30.4958 7.46188 30.5055 7.59249 30.4796C7.7231 30.4537 7.84439 30.3933 7.94372 30.3047L12.0116 26.6658C15.0652 26.8521 18.1298 26.608 21.1154 25.9404L21.6218 25.8287C22.94 25.534 24.1507 24.8796 25.1194 23.9383C26.0881 22.9969 26.7769 21.8055 27.1092 20.4963C28.2969 15.8154 28.2969 10.9121 27.1092 6.23128C26.7767 4.92189 26.0877 3.7303 25.1188 2.78895C24.1498 1.84759 22.9388 1.19333 21.6204 0.898856L21.1154 0.785653ZM8.14034 6.10914C7.86351 6.06885 7.58123 6.12457 7.34047 6.26703H7.31962C6.76105 6.59472 6.2576 7.00732 5.82862 7.49289C5.47114 7.90549 5.27751 8.32255 5.22686 8.72472C5.19707 8.96304 5.21793 9.20434 5.28793 9.43223L5.31474 9.44713C5.71691 10.6283 6.24122 11.7648 6.8817 12.8343C7.70756 14.3364 8.72386 15.7257 9.9054 16.9676L9.94115 17.0183L9.99775 17.06L10.032 17.1002L10.0737 17.1359C11.32 18.3211 12.7125 19.3422 14.2175 20.1745C15.9379 21.1114 16.982 21.5538 17.6091 21.7385V21.7475C17.7923 21.8041 17.9592 21.8294 18.1275 21.8294C18.6615 21.7899 19.167 21.5728 19.5633 21.2127C20.0474 20.7837 20.4571 20.2788 20.7758 19.7173V19.7068C21.0752 19.1408 20.9739 18.6076 20.542 18.2456C19.6743 17.4875 18.7361 16.8142 17.7402 16.2348C17.0729 15.8728 16.3952 16.0918 16.1211 16.4582L15.5357 17.197C15.2348 17.5634 14.6897 17.5128 14.6897 17.5128L14.6748 17.5217C10.607 16.4835 9.52111 12.3651 9.52111 12.3651C9.52111 12.3651 9.47046 11.805 9.84731 11.519L10.5801 10.9292C10.9317 10.6432 11.1759 9.96696 10.7991 9.29966C10.2236 8.30283 9.55155 7.36491 8.79274 6.49939C8.62724 6.2957 8.39514 6.15697 8.13736 6.10766L8.14034 6.10914ZM15.0129 4.31876C14.8154 4.31876 14.626 4.39722 14.4863 4.53689C14.3466 4.67656 14.2682 4.86599 14.2682 5.06351C14.2682 5.26103 14.3466 5.45046 14.4863 5.59013C14.626 5.7298 14.8154 5.80826 15.0129 5.80826C16.8971 5.80826 18.4611 6.42343 19.6989 7.60312C20.3349 8.24807 20.8309 9.01219 21.1556 9.84929C21.4818 10.6879 21.6308 11.5831 21.5921 12.4798C21.5879 12.5776 21.6031 12.6752 21.6368 12.7671C21.6704 12.8591 21.7218 12.9435 21.7881 13.0155C21.9219 13.1611 22.108 13.2475 22.3055 13.2558C22.503 13.2641 22.6958 13.1936 22.8413 13.0598C22.9868 12.926 23.0733 12.7398 23.0816 12.5423C23.1278 11.4393 22.9447 10.3387 22.5438 9.31009C22.1413 8.27658 21.5309 7.33667 20.7505 6.54855L20.7356 6.53365C19.1999 5.06649 17.2561 4.31876 15.0129 4.31876ZM14.9623 6.76751C14.7647 6.76751 14.5753 6.84597 14.4356 6.98564C14.296 7.12531 14.2175 7.31474 14.2175 7.51226C14.2175 7.70978 14.296 7.89921 14.4356 8.03888C14.5753 8.17855 14.7647 8.25701 14.9623 8.25701H14.9876C16.346 8.35383 17.335 8.80664 18.0277 9.5499C18.7382 10.3155 19.1061 11.2673 19.0778 12.444C19.0732 12.6415 19.1473 12.8328 19.2838 12.9756C19.4202 13.1185 19.6079 13.2013 19.8054 13.2059C20.0029 13.2104 20.1941 13.1363 20.337 12.9999C20.4799 12.8634 20.5627 12.6758 20.5673 12.4783C20.603 10.9337 20.1055 9.60054 19.1195 8.53704V8.53406C18.1111 7.45268 16.7273 6.88071 15.0621 6.769L15.0367 6.76602L14.9623 6.76751ZM14.934 9.26243C14.8343 9.25363 14.7339 9.26501 14.6387 9.29588C14.5435 9.32676 14.4556 9.37649 14.38 9.44212C14.3045 9.50774 14.243 9.58791 14.1991 9.67785C14.1553 9.76778 14.13 9.86562 14.1248 9.96554C14.1196 10.0655 14.1345 10.1654 14.1688 10.2594C14.2031 10.3534 14.2559 10.4395 14.3242 10.5127C14.3925 10.5858 14.4749 10.6444 14.5663 10.685C14.6578 10.7256 14.7565 10.7473 14.8565 10.749C15.4791 10.7817 15.8768 10.9694 16.1271 11.2211C16.3788 11.4743 16.5665 11.881 16.6007 12.517C16.6026 12.6169 16.6245 12.7155 16.6653 12.8068C16.706 12.898 16.7648 12.9802 16.8379 13.0483C16.9111 13.1164 16.9972 13.1691 17.0912 13.2032C17.1852 13.2373 17.285 13.2522 17.3848 13.2469C17.4847 13.2415 17.5824 13.2162 17.6722 13.1723C17.762 13.1285 17.8421 13.067 17.9076 12.9915C17.9732 12.916 18.0229 12.8281 18.0537 12.733C18.0846 12.6379 18.096 12.5376 18.0872 12.4381C18.0396 11.5443 17.7596 10.7549 17.1861 10.174C16.6097 9.5931 15.8247 9.31009 14.934 9.26243Z" fill="#909090"/>
</svg>
