<svg width="30" height="30" viewBox="0 0 30 30" fill="none" xmlns="http://www.w3.org/2000/svg">
<path fill-rule="evenodd" clip-rule="evenodd" d="M7.08333 0.75C5.40363 0.75 3.79272 1.41726 2.60499 2.60499C1.41726 3.79272 0.75 5.40363 0.75 7.08333V22.9167C0.75 24.5964 1.41726 26.2073 2.60499 27.395C3.79272 28.5827 5.40363 29.25 7.08333 29.25H22.9167C24.5964 29.25 26.2073 28.5827 27.395 27.395C28.5827 26.2073 29.25 24.5964 29.25 22.9167V7.08333C29.25 5.40363 28.5827 3.79272 27.395 2.60499C26.2073 1.41726 24.5964 0.75 22.9167 0.75H7.08333ZM23.4423 11.9204C23.6754 11.571 23.7601 11.1434 23.6779 10.7315C23.5956 10.3197 23.3531 9.95739 23.0038 9.72433C22.6544 9.49127 22.2267 9.40655 21.8149 9.4888C21.403 9.57105 21.0407 9.81354 20.8077 10.1629C20.2472 10.9071 19.6598 11.6196 18.9726 12.2529C18.1762 12.9876 17.3703 13.5386 16.5849 13.8648L16.5723 10.8564C16.5269 10.4713 16.3417 10.1162 16.0519 9.85847C15.7621 9.60076 15.3878 9.45838 15 9.45833C14.1418 9.50742 13.4167 10.1408 13.4167 11.0417V17.9656C10.3323 17.1106 8.66667 14.1181 8.66667 11.0417C8.66667 10.6217 8.49985 10.219 8.20292 9.92208C7.90599 9.62515 7.50326 9.45833 7.08333 9.45833C6.66341 9.45833 6.26068 9.62515 5.96375 9.92208C5.66682 10.219 5.5 10.6217 5.5 11.0417C5.5 16.7923 9.47417 21.3333 15 21.3333C15.4199 21.3333 15.8227 21.1665 16.1196 20.8696C16.4165 20.5727 16.5833 20.1699 16.5833 19.75V17.2753C18.6923 17.4431 20.738 18.933 21.5012 20.4577C21.5901 20.6502 21.7168 20.8229 21.8737 20.9655C22.0306 21.1081 22.2146 21.2178 22.4147 21.2879C22.6148 21.3581 22.827 21.3873 23.0386 21.3739C23.2502 21.3605 23.457 21.3048 23.6466 21.2099C23.8363 21.1151 24.005 20.9832 24.1427 20.8219C24.2804 20.6606 24.3843 20.4734 24.4482 20.2712C24.5121 20.069 24.5348 19.8561 24.5149 19.6449C24.4949 19.4338 24.4328 19.2289 24.3322 19.0423C23.5753 17.527 22.163 16.1099 20.4245 15.1852C20.6588 14.9937 20.8916 14.791 21.1212 14.5804C21.9935 13.7849 22.7723 12.8924 23.4423 11.9204Z" fill="#909090"/>
</svg>
