<svg width="19" height="21" viewBox="0 0 19 21" fill="none" xmlns="http://www.w3.org/2000/svg">
<path d="M18.3113 10.5827V15.3743C18.3113 18.2493 16.5829 20.166 13.9903 20.166H5.34833C2.75574 20.166 1.02734 18.2493 1.02734 15.3743V10.5827C1.02734 7.97602 2.44463 6.15518 4.64833 5.84852C4.87302 5.81018 5.10636 5.79102 5.34833 5.79102H13.9903C14.215 5.79102 14.431 5.8006 14.6385 5.83893C16.8681 6.12643 18.3113 7.95685 18.3113 10.5827Z" stroke="#C9C9C9" stroke-linecap="round" stroke-linejoin="round"/>
<path d="M18.311 11.0625H15.7184C14.7678 11.0625 13.99 11.925 13.99 12.9791C13.99 14.0333 14.7678 14.8958 15.7184 14.8958H18.311M14.639 5.83955C14.4316 5.80121 14.2156 5.79163 13.9909 5.79163H5.34893C5.10695 5.79163 4.87362 5.8108 4.64893 5.84913C4.76991 5.5808 4.94275 5.33163 5.15016 5.10163L7.9588 1.97746C8.52919 1.35127 9.29939 1 10.102 1C10.9046 1 11.6748 1.35127 12.2452 1.97746L13.7576 3.67371C14.3107 4.27746 14.6045 5.04413 14.639 5.83955Z" stroke="#C9C9C9" stroke-linecap="round" stroke-linejoin="round"/>
</svg>
