<svg width="18" height="20" viewBox="0 0 18 20" fill="none" xmlns="http://www.w3.org/2000/svg">
<path d="M8.39325 10.1667C9.53925 10.1667 10.6383 9.68378 11.4487 8.82424C12.259 7.9647 12.7142 6.79891 12.7142 5.58333C12.7142 4.36776 12.259 3.20197 11.4487 2.34243C10.6383 1.48289 9.53925 1 8.39325 1C7.24726 1 6.1482 1.48289 5.33785 2.34243C4.52751 3.20197 4.07227 4.36776 4.07227 5.58333C4.07227 6.79891 4.52751 7.9647 5.33785 8.82424C6.1482 9.68378 7.24726 10.1667 8.39325 10.1667Z" stroke="white" stroke-linecap="round" stroke-linejoin="round"/>
<path d="M14.6244 13.5956L11.5651 16.8406C11.4441 16.9689 11.3318 17.2073 11.3059 17.3814L11.1417 18.6189C11.0812 19.0681 11.375 19.3797 11.7985 19.3156L12.9651 19.1414C13.1293 19.1139 13.3627 18.9947 13.475 18.8664L16.5343 15.6214C17.0614 15.0623 17.3121 14.4114 16.5343 13.5864C15.7651 12.7706 15.1516 13.0364 14.6244 13.5956Z" stroke="white" stroke-miterlimit="10" stroke-linecap="round" stroke-linejoin="round"/>
<path d="M14.1831 14.0625C14.4424 15.0525 15.1683 15.8225 16.1016 16.0975" stroke="white" stroke-miterlimit="10" stroke-linecap="round" stroke-linejoin="round"/>
<path d="M0.969727 19.3337C0.969727 15.7862 4.29689 12.917 8.39318 12.917C9.29195 12.917 10.1561 13.0545 10.9599 13.3112" stroke="white" stroke-linecap="round" stroke-linejoin="round"/>
</svg>
