<svg width="20" height="20" viewBox="0 0 20 20" fill="none" xmlns="http://www.w3.org/2000/svg">
<path fill-rule="evenodd" clip-rule="evenodd" d="M10.0001 0.0996094C7.31126 0.0996094 6.97466 0.111489 5.91833 0.159009C4.86497 0.207519 4.14524 0.37483 3.5156 0.619359C2.85476 0.867696 2.25607 1.25725 1.76132 1.76083C1.25776 2.25561 0.868213 2.85429 0.619848 3.51511C0.375318 4.14475 0.208008 4.86448 0.159498 5.91784C0.110988 6.97417 0.100098 7.31077 0.100098 9.99961C0.100098 12.6884 0.110988 13.025 0.159498 14.0814C0.208008 15.1347 0.375318 15.8545 0.619848 16.4841C0.868241 17.1449 1.25779 17.7436 1.76132 18.2384C2.25611 18.7419 2.85479 19.1315 3.5156 19.3799C4.14524 19.6244 4.86497 19.7917 5.91833 19.8402C6.97466 19.8877 7.31126 19.8996 10.0001 19.8996C12.6889 19.8996 13.0255 19.8877 14.0819 19.8402C15.1352 19.7917 15.855 19.6244 16.4846 19.3799C17.1454 19.1315 17.7441 18.7419 18.2389 18.2384C18.7424 17.7436 19.132 17.1449 19.3803 16.4841C19.6249 15.8545 19.7922 15.1347 19.8407 14.0814C19.8882 13.025 19.9001 12.6884 19.9001 9.99961C19.9001 7.31077 19.8882 6.97417 19.8407 5.91784C19.7922 4.86448 19.6249 4.14475 19.3803 3.51511C19.132 2.85429 18.7424 2.25561 18.2389 1.76083C17.7441 1.25725 17.1454 0.867696 16.4846 0.619359C15.855 0.37483 15.1352 0.207519 14.0819 0.159009C13.0255 0.111489 12.6889 0.0996094 10.0001 0.0996094ZM10.0001 1.88359C12.6434 1.88359 12.9562 1.89349 13.9997 1.94101C14.9659 1.98556 15.4896 2.14594 15.8391 2.28157C16.3005 2.46175 16.6311 2.67658 16.9776 3.02209C17.3241 3.36859 17.538 3.69925 17.7181 4.16059C17.8528 4.51006 18.0151 5.03377 18.0587 5.99902C18.1062 7.04347 18.1161 7.35532 18.1161 9.99961C18.1161 12.6429 18.1062 12.9558 18.0587 13.9992C18.0141 14.9655 17.8528 15.4892 17.7181 15.8386C17.5594 16.2687 17.3064 16.6577 16.9776 16.9771C16.6311 17.3236 16.3005 17.5375 15.8391 17.7176C15.4896 17.8523 14.9659 18.0147 14.0007 18.0582C12.9572 18.1057 12.6444 18.1156 10.0001 18.1156C7.3568 18.1156 7.04297 18.1057 6.0005 18.0582C5.03426 18.0137 4.51055 17.8523 4.16108 17.7176C3.73101 17.559 3.34197 17.306 3.02258 16.9771C2.69376 16.6577 2.44071 16.2687 2.28206 15.8386C2.14643 15.4892 1.98506 14.9655 1.9415 14.0002C1.89398 12.9558 1.88408 12.6439 1.88408 9.99961C1.88408 7.35631 1.89398 7.04347 1.9415 6.00001C1.98605 5.03377 2.14643 4.51006 2.28206 4.16059C2.46224 3.69925 2.67707 3.36859 3.02258 3.02209C3.36908 2.67559 3.69974 2.46175 4.16108 2.28157C4.51055 2.14594 5.03426 1.98457 5.99951 1.94101C7.04396 1.89349 7.35581 1.88359 10.0001 1.88359ZM10.0001 13.2993C9.12497 13.2993 8.28569 12.9516 7.66688 12.3328C7.04807 11.714 6.70043 10.8747 6.70043 9.99961C6.70043 9.12448 7.04807 8.2852 7.66688 7.66639C8.28569 7.04758 9.12497 6.69994 10.0001 6.69994C10.8752 6.69994 11.7145 7.04758 12.3333 7.66639C12.9521 8.2852 13.2998 9.12448 13.2998 9.99961C13.2998 10.8747 12.9521 11.714 12.3333 12.3328C11.7145 12.9516 10.8752 13.2993 10.0001 13.2993ZM10.0001 4.91596C9.3325 4.91596 8.67145 5.04745 8.05467 5.30293C7.43789 5.55841 6.87747 5.93287 6.40541 6.40493C5.93335 6.87699 5.55889 7.4374 5.30342 8.05418C5.04794 8.67096 4.91645 9.33202 4.91645 9.99961C4.91645 10.6672 5.04794 11.3283 5.30342 11.945C5.55889 12.5618 5.93335 13.1222 6.40541 13.5943C6.87747 14.0664 7.43789 14.4408 8.05467 14.6963C8.67145 14.9518 9.3325 15.0833 10.0001 15.0833C11.3484 15.0833 12.6414 14.5477 13.5948 13.5943C14.5481 12.6409 15.0837 11.3479 15.0837 9.99961C15.0837 8.65134 14.5481 7.3583 13.5948 6.40493C12.6414 5.45156 11.3484 4.91596 10.0001 4.91596ZM16.4727 4.71499C16.4727 4.871 16.442 5.02548 16.3823 5.16962C16.3226 5.31375 16.2351 5.44472 16.1248 5.55503C16.0144 5.66535 15.8835 5.75286 15.7393 5.81256C15.5952 5.87226 15.4407 5.90299 15.2847 5.90299C15.1287 5.90299 14.9742 5.87226 14.8301 5.81256C14.686 5.75286 14.555 5.66535 14.4447 5.55503C14.3344 5.44472 14.2469 5.31375 14.1871 5.16962C14.1274 5.02548 14.0967 4.871 14.0967 4.71499C14.0967 4.39991 14.2219 4.09774 14.4447 3.87495C14.6675 3.65215 14.9696 3.52699 15.2847 3.52699C15.5998 3.52699 15.902 3.65215 16.1248 3.87495C16.3476 4.09774 16.4727 4.39991 16.4727 4.71499Z" fill="url(#paint0_linear_26_44)"/>
<defs>
<linearGradient id="paint0_linear_26_44" x1="10.0001" y1="0.0996094" x2="10.0001" y2="19.8996" gradientUnits="userSpaceOnUse">
<stop stop-color="#7B00FF"/>
<stop offset="0.494792" stop-color="#FF006E"/>
<stop offset="1" stop-color="#FF8B00"/>
</linearGradient>
</defs>
</svg>
