<svg width="176" height="43" viewBox="0 0 176 43" fill="none" xmlns="http://www.w3.org/2000/svg">
<path d="M25.4058 34.7887L36.6892 28.1795V23.3809L25.4753 29.8602V22.291L31.7412 18.731L36.6892 15.809V10.3153L32.0345 7.57184L21.5519 13.7551L16.1536 10.5709L16.0145 10.4911L11.0693 7.57184L6.41454 10.318V28.1795L17.6039 34.7887V42.3606L10.4826 38.1473L0 31.9641V6.53341L11.0693 0.00270508L16.8972 3.43844V3.44114L21.5519 6.18732L26.4999 3.26537L32.0345 0L37.8624 3.43844V3.44114L43.1037 6.5294V31.9668L25.4058 42.3606V34.7887Z" fill="#F4B800"/>
<path d="M54.9399 0.405273H60.6021L65.4052 12.1176H65.6269L70.4301 0.405273H76.0924V19.3223H71.6401V7.70233H71.4831L66.9385 19.2022H64.0936L59.5491 7.63767H59.3921V19.3223H54.9399V0.405273ZM78.9439 19.3223V0.405273H92.1344V4.11847H83.5166V7.99796H91.4603V11.7204H83.5166V15.6091H92.1344V19.3223H78.9439ZM101.99 19.3223H94.9978V0.405273H101.981C103.908 0.405273 105.568 0.783984 106.959 1.54141C108.357 2.29267 109.435 3.37645 110.193 4.79277C110.95 6.20291 111.328 7.8902 111.328 9.85454C111.328 11.8251 110.95 13.5185 110.193 14.9348C109.441 16.3511 108.367 17.438 106.969 18.1954C105.571 18.9467 103.911 19.3223 101.99 19.3223ZM99.5698 15.4244H101.814C102.874 15.4244 103.769 15.2458 104.502 14.8886C105.242 14.5253 105.798 13.9372 106.174 13.1244C106.556 12.3054 106.747 11.2154 106.747 9.85454C106.747 8.49365 106.556 7.40989 106.174 6.60318C105.792 5.79034 105.229 5.20534 104.484 4.84818C103.745 4.48487 102.834 4.30321 101.749 4.30321H99.5698V15.4244ZM118.57 0.405273V19.3223H113.998V0.405273H118.57ZM125.532 19.3223H120.619L127.001 0.405273H133.088L139.47 19.3223H134.557L130.114 5.17148H129.966L125.532 19.3223ZM124.876 11.8774H135.148V15.3504H124.876V11.8774ZM54.9399 42.3605V23.4435H62.8282C64.2445 23.4435 65.4299 23.6436 66.3844 24.0438C67.345 24.4441 68.0655 25.0045 68.5458 25.725C69.0323 26.4455 69.2755 27.2798 69.2755 28.2282C69.2755 28.9486 69.1246 29.5921 68.8228 30.1586C68.5211 30.719 68.1055 31.1839 67.5759 31.5534C67.0463 31.9229 66.4336 32.1815 65.7378 32.3293V32.514C66.5013 32.551 67.2064 32.7573 67.853 33.1329C68.5057 33.5085 69.0291 34.0319 69.4232 34.7032C69.8173 35.3682 70.0144 36.1564 70.0144 37.0678C70.0144 38.0838 69.7558 38.9921 69.2385 39.7926C68.7212 40.587 67.9731 41.2151 66.994 41.677C66.0149 42.1326 64.8264 42.3605 63.4286 42.3605H54.9399ZM59.5121 38.675H62.3386C63.33 38.675 64.0597 38.4872 64.5278 38.1116C65.0019 37.7359 65.239 37.2125 65.239 36.5413C65.239 36.0549 65.1251 35.6361 64.8972 35.2851C64.6693 34.9279 64.3461 34.6539 63.9274 34.463C63.5086 34.266 63.0067 34.1674 62.4218 34.1674H59.5121V38.675ZM59.5121 31.2209H62.0431C62.5418 31.2209 62.9852 31.1378 63.3731 30.9715C63.7611 30.8052 64.0628 30.5651 64.2784 30.251C64.5001 29.9369 64.6109 29.5582 64.6109 29.1149C64.6109 28.4806 64.3861 27.9818 63.9366 27.6186C63.487 27.2552 62.8805 27.0735 62.1169 27.0735H59.5121V31.2209ZM83.6571 23.4435H88.2201V35.6453C88.2201 37.0555 87.8849 38.284 87.2131 39.3308C86.542 40.3715 85.6064 41.1782 84.4054 41.7509C83.2045 42.3174 81.8095 42.6007 80.2214 42.6007C78.6139 42.6007 77.2101 42.3174 76.0091 41.7509C74.8082 41.1782 73.8754 40.3715 73.2104 39.3308C72.5453 38.284 72.2128 37.0555 72.2128 35.6453V23.4435H76.785V35.2481C76.785 35.9009 76.9269 36.4828 77.2101 36.9939C77.4992 37.505 77.9027 37.9053 78.42 38.1947C78.9372 38.4841 79.5377 38.6288 80.2214 38.6288C80.9044 38.6288 81.5019 38.4841 82.0132 38.1947C82.5304 37.9053 82.934 37.505 83.2231 36.9939C83.5121 36.4828 83.6571 35.9009 83.6571 35.2481V23.4435ZM95.6585 23.4435V42.3605H91.0858V23.4435H95.6585ZM98.5286 42.3605V23.4435H103.101V38.6473H110.971V42.3605H98.5286ZM120.329 42.3605H113.338V23.4435H120.32C122.248 23.4435 123.907 23.8222 125.299 24.5796C126.697 25.3309 127.774 26.4146 128.532 27.831C129.289 29.2411 129.668 30.9284 129.668 32.8927C129.668 34.8633 129.289 36.5567 128.532 37.973C127.78 39.3893 126.706 40.4762 125.309 41.2336C123.911 41.9849 122.251 42.3605 120.329 42.3605ZM117.91 38.4626H120.154C121.213 38.4626 122.109 38.284 122.842 37.9268C123.581 37.5635 124.138 36.9754 124.514 36.1626C124.895 35.3436 125.086 34.2536 125.086 32.8927C125.086 31.5319 124.895 30.4481 124.514 29.6414C124.132 28.8285 123.569 28.2436 122.823 27.8864C122.085 27.5231 121.174 27.3414 120.089 27.3414H117.91V38.4626ZM136.909 23.4435V42.3605H132.338V23.4435H136.909ZM155.88 23.4435V42.3605H152L144.473 31.4425H144.352V42.3605H139.78V23.4435H143.715L151.16 34.3429H151.317V23.4435H155.88ZM171.169 29.6229C171.065 29.2349 170.91 28.8932 170.707 28.5976C170.504 28.2959 170.255 28.0403 169.959 27.831C169.663 27.6216 169.325 27.4646 168.943 27.3599C168.561 27.2491 168.143 27.1936 167.687 27.1936C166.769 27.1936 165.975 27.4153 165.304 27.8587C164.639 28.3021 164.124 28.9486 163.761 29.7984C163.398 30.6421 163.216 31.6673 163.216 32.8742C163.216 34.0874 163.392 35.1219 163.743 35.9779C164.094 36.8338 164.601 37.4865 165.267 37.936C165.932 38.3856 166.739 38.6103 167.687 38.6103C168.525 38.6103 169.232 38.4748 169.811 38.2039C170.397 37.9268 170.84 37.5358 171.141 37.0309C171.443 36.5259 171.594 35.9316 171.594 35.2481L172.444 35.3497H167.844V32.0152H176V34.5184C176 36.2118 175.64 37.662 174.92 38.8689C174.205 40.0759 173.22 41.0026 171.963 41.6493C170.713 42.2958 169.275 42.6191 167.65 42.6191C165.845 42.6191 164.26 42.2281 162.893 41.446C161.526 40.664 160.46 39.5494 159.697 38.1023C158.933 36.649 158.551 34.9249 158.551 32.9297C158.551 31.3779 158.782 30.0016 159.245 28.8009C159.706 27.5939 160.35 26.5717 161.175 25.7342C162.006 24.8967 162.966 24.2625 164.057 23.8314C165.153 23.4004 166.332 23.1848 167.594 23.1848C168.69 23.1848 169.71 23.3418 170.652 23.6559C171.6 23.97 172.437 24.4134 173.164 24.986C173.897 25.5587 174.491 26.2392 174.947 27.0274C175.403 27.8156 175.686 28.6808 175.796 29.6229H171.169Z" fill="#F0F0F0"/>
</svg>
