<svg width="20" height="29" viewBox="0 0 20 29" fill="none" xmlns="http://www.w3.org/2000/svg">
<path d="M9.9934 13.0899C9.86144 13.0763 9.70308 13.0763 9.55792 13.0899C8.04323 13.0368 6.60803 12.3769 5.55626 11.2499C4.50448 10.123 3.91872 8.61748 3.92302 7.05226C3.92302 3.71315 6.53592 1.00098 9.78226 1.00098C10.5508 0.986667 11.3146 1.12884 12.03 1.41937C12.7454 1.7099 13.3984 2.14312 13.9516 2.69426C14.5049 3.24542 14.9476 3.90373 15.2546 4.6316C15.5615 5.35947 15.7266 6.14265 15.7405 6.93641C15.7543 7.73018 15.6167 8.519 15.3353 9.25783C15.054 9.99665 14.6346 10.671 14.1009 11.2424C13.5673 11.8138 12.9299 12.2711 12.2251 12.5881C11.5203 12.9051 10.762 13.0756 9.9934 13.0899ZM3.39516 18.119C0.201613 20.3269 0.201613 23.9249 3.39516 26.1192C7.02419 28.6269 12.9758 28.6269 16.6048 26.1192C19.7984 23.9113 19.7984 20.3132 16.6048 18.119C12.989 15.6249 7.03739 15.6249 3.39516 18.119Z" stroke="#CCCCCC" stroke-linecap="round" stroke-linejoin="round"/>
</svg>
