<svg width="64" height="52" viewBox="0 0 64 52" fill="none" xmlns="http://www.w3.org/2000/svg">
<path d="M19.6005 3.94976H1M10.3003 47.9995H1M4.10008 25.9746H1M42.5101 4.61051L46.8813 13.4834C47.4703 14.7105 49.0513 15.8747 50.3844 16.1264L58.2896 17.4479C63.3427 18.2974 64.5207 22.0102 60.8936 25.7229L54.7245 31.9843C53.7014 33.0226 53.1124 35.0678 53.4534 36.5466L55.2205 44.2868C56.6155 50.3908 53.3914 52.7821 48.0903 49.5727L40.6811 45.1048C39.348 44.2868 37.116 44.2868 35.783 45.1048L28.3737 49.5727C23.0726 52.7506 19.8485 50.3908 21.2436 44.2868L23.0106 36.5466C23.3516 35.0992 22.7626 33.0541 21.7396 31.9843L15.5704 25.7229C11.9433 22.0416 13.1213 18.3289 18.1745 17.4479L26.0797 16.1264C27.4127 15.9061 28.9938 14.7105 29.5828 13.4834L33.9539 4.61051C36.279 -0.203502 40.1231 -0.203502 42.5101 4.61051Z" stroke="#C9C9C9" stroke-width="1.5" stroke-linecap="round" stroke-linejoin="round"/>
</svg>
