<svg width="50" height="51" viewBox="0 0 50 51" fill="none" xmlns="http://www.w3.org/2000/svg">
<path d="M48.9095 16.0687V28.046C48.9095 37.6279 44.1185 42.4189 34.5366 42.4189H33.3389C32.5963 42.4189 31.8777 42.7782 31.4225 43.3771L27.8293 48.168C26.2483 50.276 23.6612 50.276 22.0802 48.168L18.487 43.3771C18.1037 42.8501 17.2174 42.4189 16.5706 42.4189H15.3728C5.79095 42.4189 1 40.0234 1 28.046V16.0687C1 6.48675 5.79095 1.6958 15.3728 1.6958H24.9547" stroke="#C9C9C9" stroke-width="1.5" stroke-miterlimit="10" stroke-linecap="round" stroke-linejoin="round"/>
<path d="M32.6208 7.97223C31.8302 5.60071 32.7645 2.67823 35.3516 1.86377C36.6931 1.45654 38.3699 1.7919 39.3281 3.0615C40.2384 1.74399 41.9631 1.45654 43.3046 1.86377C45.8917 2.65427 46.8259 5.60071 46.0354 7.97223C44.8137 11.7331 40.5258 13.6735 39.3281 13.6735C38.1303 13.6735 33.8904 11.7571 32.6208 7.97223Z" stroke="#C9C9C9" stroke-width="1.5" stroke-linecap="round" stroke-linejoin="round"/>
<path d="M34.527 23.2549H34.551M24.9427 23.2549H24.9667M15.3608 23.2549H15.38" stroke="#C9C9C9" stroke-width="2" stroke-linecap="round" stroke-linejoin="round"/>
</svg>
