<svg width="19" height="17" viewBox="0 0 19 17" fill="none" xmlns="http://www.w3.org/2000/svg">
<path d="M12.75 8.27921C12.75 10.0199 11.3433 11.4266 9.60259 11.4266C7.86186 11.4266 6.45522 10.0199 6.45522 8.27921C6.45522 6.53848 7.86186 5.13184 9.60259 5.13184C11.3433 5.13184 12.75 6.53848 12.75 8.27921Z" stroke="#C9C9C9" stroke-linecap="round" stroke-linejoin="round"/>
<path d="M9.60252 15.55C12.7059 15.55 15.5984 13.7214 17.6116 10.5564C18.4029 9.3168 18.4029 7.2332 17.6116 5.99359C15.5984 2.82864 12.7059 1 9.60252 1C6.49911 1 3.60669 2.82864 1.59343 5.99359C0.80219 7.2332 0.80219 9.3168 1.59343 10.5564C3.60669 13.7214 6.49911 15.55 9.60252 15.55Z" stroke="#C9C9C9" stroke-linecap="round" stroke-linejoin="round"/>
</svg>
