<svg width="85" height="98" viewBox="0 0 85 98" fill="none" xmlns="http://www.w3.org/2000/svg">
<path d="M24.2511 0V12.1255H36.3766V12.4893C15.7632 15.3994 0 33.224 0 54.5649C0 77.9672 19.0371 97.0043 42.4394 97.0043C65.8417 97.0043 84.8787 77.9672 84.8787 54.5649C84.8787 49.1084 83.6662 44.0157 81.8474 39.408L70.8131 44.0157C72.1469 47.5321 72.7532 50.9272 72.7532 54.6862C72.7532 71.5407 59.2939 85 42.4394 85C25.5849 85 12.1255 71.5407 12.1255 54.6862C12.1255 37.8317 25.5849 24.3723 42.4394 24.3723C46.077 24.3723 49.5934 24.9786 53.1098 26.3124L57.2325 14.9144C54.4436 13.9444 51.5335 13.4593 48.5021 12.9743V12.2468H60.6277V0.121255H24.2511V0ZM84.8787 14.0656C84.8787 14.0656 40.6205 48.1384 38.3167 50.4422C36.0128 52.8673 36.0128 56.3837 38.3167 58.8088C40.6205 61.234 44.2582 61.234 46.6833 58.8088C49.1084 56.3837 85 14.0656 85 14.0656H84.8787Z" fill="#2EE89A"/>
</svg>
