<svg width="35" height="36" viewBox="0 0 35 36" fill="none" xmlns="http://www.w3.org/2000/svg">
<path d="M34.2564 27.0483L26.252 19.0439C24.6729 17.4648 22.3147 17.1572 20.4144 18.0937L13.1277 10.807V6.56213L4.37817 0L0.00341773 4.37476L6.56555 13.1243H10.8104L18.0971 20.411C17.1675 22.3113 17.4683 24.6695 19.0473 26.2485L27.0517 34.253C28.0497 35.251 29.6629 35.251 30.6541 34.253L34.2564 30.6506C35.2475 29.6526 35.2475 28.0395 34.2564 27.0483ZM22.677 15.38C24.6114 15.38 26.4297 16.1319 27.7968 17.499L29.1229 18.8251C30.2029 18.3535 31.2282 17.6973 32.1169 16.8086C34.6529 14.2726 35.5141 10.7045 34.7075 7.46443C34.5572 6.84923 33.7847 6.63733 33.3336 7.08847L28.2479 12.1741L23.6066 11.4017L22.8342 6.76037L27.9198 1.67471C28.371 1.22356 28.1522 0.451147 27.5302 0.293929C24.2902 -0.505831 20.722 0.355449 18.1928 2.8846C16.2447 4.83274 15.3287 7.40291 15.3766 9.96624L20.9886 15.5782C21.5423 15.4484 22.1164 15.38 22.677 15.38ZM15.5748 20.9852L11.6991 17.1094L1.28167 27.5336C-0.427222 29.2425 -0.427222 32.0109 1.28167 33.7198C2.99056 35.4287 5.75896 35.4287 7.46785 33.7198L15.9166 25.2711C15.3971 23.9108 15.2399 22.4275 15.5748 20.9852ZM4.37817 32.2638C3.47588 32.2638 2.73764 31.5256 2.73764 30.6233C2.73764 29.7142 3.46905 28.9828 4.37817 28.9828C5.2873 28.9828 6.01871 29.7142 6.01871 30.6233C6.01871 31.5256 5.2873 32.2638 4.37817 32.2638Z" fill="#343434"/>
</svg>
