<svg width="85" height="85" viewBox="0 0 85 85" fill="none" xmlns="http://www.w3.org/2000/svg">
<path d="M42.5005 74.3751C42.0344 74.3778 41.5723 74.2885 41.1408 74.1122C40.7093 73.936 40.3169 73.6763 39.9859 73.348L12.4672 45.7939C9.01532 42.306 7.0791 37.5969 7.0791 32.6897C7.0791 27.7825 9.01532 23.0735 12.4672 19.5855C15.946 16.1165 20.6584 14.1685 25.5713 14.1685C30.4842 14.1685 35.1967 16.1165 38.6755 19.5855L42.5005 23.4105L46.3255 19.5855C49.8043 16.1165 54.5168 14.1685 59.4297 14.1685C64.3426 14.1685 69.055 16.1165 72.5338 19.5855C75.9857 23.0735 77.9219 27.7825 77.9219 32.6897C77.9219 37.5969 75.9857 42.306 72.5338 45.7939L45.0151 73.348C44.6842 73.6763 44.2917 73.936 43.8602 74.1122C43.4287 74.2885 42.9666 74.3778 42.5005 74.3751Z" fill="#E82E2E"/>
</svg>
