<svg width="85" height="107" viewBox="0 0 85 107" fill="none" xmlns="http://www.w3.org/2000/svg">
<path d="M83.0343 8.75688C82.4172 8.25762 81.6959 7.90302 80.9237 7.71915C80.1514 7.53528 79.3478 7.52682 78.5719 7.69438C72.8951 8.88408 67.0349 8.89924 61.3521 7.73892C55.6693 6.5786 50.2841 4.26737 45.5281 0.947513C44.6388 0.330586 43.5823 0 42.5 0C41.4177 0 40.3612 0.330586 39.4719 0.947513C34.7159 4.26737 29.3307 6.5786 23.6479 7.73892C17.9651 8.89924 12.1049 8.88408 6.42815 7.69438C5.6522 7.52682 4.84856 7.53528 4.07631 7.71915C3.30406 7.90302 2.58284 8.25762 1.96565 8.75688C1.34929 9.25689 0.852797 9.88864 0.512646 10.6057C0.172494 11.3228 -0.00266788 12.107 3.07141e-05 12.9006V52.4787C-0.00469229 60.0955 1.81039 67.6032 5.29412 74.3766C8.77785 81.15 13.8294 86.9931 20.0281 91.4193L39.4188 105.232C40.3185 105.872 41.3955 106.217 42.5 106.217C43.6045 106.217 44.6815 105.872 45.5812 105.232L64.9719 91.4193C71.1706 86.9931 76.2222 81.15 79.7059 74.3766C83.1896 67.6032 85.0047 60.0955 85 52.4787V12.9006C85.0027 12.107 84.8275 11.3228 84.4874 10.6057C84.1472 9.88864 83.6507 9.25689 83.0343 8.75688ZM74.375 52.4787C74.3791 58.4009 72.9687 64.2383 70.2613 69.5054C67.5538 74.7724 63.6276 79.3167 58.8094 82.76L42.5 94.3943L26.1906 82.76C21.3724 79.3167 17.4462 74.7724 14.7388 69.5054C12.0313 64.2383 10.6209 58.4009 10.625 52.4787V19.01C21.7623 19.9632 32.9165 17.3792 42.5 11.6256C52.0835 17.3792 63.2377 19.9632 74.375 19.01V52.4787ZM50.6812 40.3131L36.3906 54.6568L31.6625 49.8756C30.6621 48.8752 29.3054 48.3132 27.8906 48.3132C26.4759 48.3132 25.1191 48.8752 24.1188 49.8756C23.1184 50.876 22.5564 52.2328 22.5564 53.6475C22.5564 55.0622 23.1184 56.419 24.1188 57.4193L32.6188 65.9193C33.1126 66.4173 33.7002 66.8125 34.3476 67.0822C34.9949 67.3519 35.6893 67.4908 36.3906 67.4908C37.0919 67.4908 37.7863 67.3519 38.4337 67.0822C39.0811 66.8125 39.6686 66.4173 40.1625 65.9193L58.4375 47.8037C59.4379 46.8034 59.9998 45.4466 59.9998 44.0319C59.9998 42.6171 59.4379 41.2603 58.4375 40.26C57.4371 39.2596 56.0803 38.6976 54.6656 38.6976C53.2509 38.6976 51.8941 39.2596 50.8937 40.26L50.6812 40.3131Z" fill="#2EE89A"/>
</svg>
