<svg width="35" height="35" viewBox="0 0 35 35" fill="none" xmlns="http://www.w3.org/2000/svg">
<path d="M22.75 29.75C22.75 29.2859 22.5656 28.8407 22.2374 28.5126C21.9092 28.1844 21.4641 28 21 28H19.25V24.5H26.25C27.1783 24.5 28.0685 24.1313 28.7249 23.4749C29.3813 22.8185 29.75 21.9283 29.75 21V3.5C29.75 2.57174 29.3813 1.6815 28.7249 1.02513C28.0685 0.368749 27.1783 0 26.25 0H8.75C7.82174 0 6.9315 0.368749 6.27513 1.02513C5.61875 1.6815 5.25 2.57174 5.25 3.5V21C5.25 21.9283 5.61875 22.8185 6.27513 23.4749C6.9315 24.1313 7.82174 24.5 8.75 24.5H15.75V28H14C13.5359 28 13.0908 28.1844 12.7626 28.5126C12.4344 28.8407 12.25 29.2859 12.25 29.75H0V33.25H12.25C12.25 33.7141 12.4344 34.1592 12.7626 34.4874C13.0908 34.8156 13.5359 35 14 35H21C21.4641 35 21.9092 34.8156 22.2374 34.4874C22.5656 34.1592 22.75 33.7141 22.75 33.25H35V29.75H22.75ZM8.75 21V3.5H26.25V21H8.75ZM14 5.25H10.5V19.25H14V5.25ZM21 5.25H15.75V19.25H19.25V15.75H21C21.9283 15.75 22.8185 15.3813 23.4749 14.7249C24.1313 14.0685 24.5 13.1783 24.5 12.25V8.75C24.5 7.82174 24.1313 6.9315 23.4749 6.27513C22.8185 5.61875 21.9283 5.25 21 5.25ZM21 12.25H19.25V8.75H21V12.25Z" fill="#343434"/>
</svg>
