<svg width="84" height="115" viewBox="0 0 84 115" fill="none" xmlns="http://www.w3.org/2000/svg">
<path d="M84 42C84 18.7092 65.1001 0 42 0C18.8999 0 0 18.8999 0 42C0 58.0362 9.73689 72.164 22.9094 79.2259L19.0906 114.543L42 99.2717L64.9094 114.543L61.0906 79.2259C74.4538 72.1621 84 58.0362 84 42ZM42 80.1811C20.8103 80.1811 3.81888 62.999 3.81888 42C3.81888 20.8103 21.001 3.81888 42 3.81888C62.999 3.81888 80.1811 21.001 80.1811 42C80.1985 47.0189 79.2228 51.9916 77.3102 56.6318C75.3975 61.272 72.5858 65.488 69.0369 69.0369C65.488 72.5858 61.272 75.3975 56.6318 77.3102C51.9916 79.2228 47.0189 80.1985 42 80.1811ZM59.1821 26.3451L64.9094 32.0725L39.1363 57.8456L24.8179 43.5272L30.5453 37.7998L39.1363 46.3908L59.1821 26.3451Z" fill="#2EE89A"/>
</svg>
