<svg width="85" height="85" viewBox="0 0 85 85" fill="none" xmlns="http://www.w3.org/2000/svg">
<path d="M74.3748 28.3334C76.2534 28.3334 78.0551 29.0797 79.3835 30.4081C80.7119 31.7365 81.4582 33.5382 81.4582 35.4168V49.5834C81.4582 51.4621 80.7119 53.2637 79.3835 54.5921C78.0551 55.9205 76.2534 56.6668 74.3748 56.6668H70.6136C69.7502 63.5139 66.4177 69.8105 61.2414 74.3751C56.0652 78.9397 49.4012 81.4583 42.4998 81.4585V74.3751C48.1357 74.3751 53.5407 72.1363 57.5259 68.1511C61.511 64.166 63.7498 58.761 63.7498 53.1251V31.8751C63.7498 26.2393 61.511 20.8342 57.5259 16.8491C53.5407 12.8639 48.1357 10.6251 42.4998 10.6251C36.864 10.6251 31.459 12.8639 27.4738 16.8491C23.4887 20.8342 21.2498 26.2393 21.2498 31.8751V56.6668H10.6248C8.74622 56.6668 6.94455 55.9205 5.61616 54.5921C4.28778 53.2637 3.5415 51.4621 3.5415 49.5834V35.4168C3.5415 33.5382 4.28778 31.7365 5.61616 30.4081C6.94455 29.0797 8.74622 28.3334 10.6248 28.3334H14.3861C15.2504 21.487 18.5832 15.1913 23.7594 10.6275C28.9355 6.06373 35.5991 3.54559 42.4998 3.54559C49.4006 3.54559 56.0642 6.06373 61.2403 10.6275C66.4164 15.1913 69.7493 21.487 70.6136 28.3334H74.3748ZM27.4832 55.9053L31.2373 49.8987C34.6128 52.0132 38.5168 53.1315 42.4998 53.1251C46.4829 53.1315 50.3869 52.0132 53.7623 49.8987L57.5165 55.9053C53.016 58.725 47.8107 60.2166 42.4998 60.2084C37.189 60.2166 31.9837 58.725 27.4832 55.9053Z" fill="#2EE799"/>
</svg>
