<svg width="35" height="35" viewBox="0 0 35 35" fill="none" xmlns="http://www.w3.org/2000/svg">
<path d="M33.9652 11.592C33.9652 11.592 33.9652 11.592 33.9652 11.5043C32.7297 8.13098 30.4879 5.21855 27.543 3.16098C24.5982 1.10342 21.0924 0 17.5 0C13.9076 0 10.4018 1.10342 7.45696 3.16098C4.51213 5.21855 2.27033 8.13098 1.03483 11.5043C1.03483 11.5043 1.03483 11.5043 1.03483 11.592C-0.344942 15.3986 -0.344942 19.5687 1.03483 23.3753C1.03483 23.3753 1.03483 23.3753 1.03483 23.463C2.27033 26.8363 4.51213 29.7487 7.45696 31.8063C10.4018 33.8639 13.9076 34.9673 17.5 34.9673C21.0924 34.9673 24.5982 33.8639 27.543 31.8063C30.4879 29.7487 32.7297 26.8363 33.9652 23.463C33.9652 23.463 33.9652 23.463 33.9652 23.3753C35.3449 19.5687 35.3449 15.3986 33.9652 11.592ZM3.893 20.9906C3.28494 18.6922 3.28494 16.2751 3.893 13.9767H7.15447C6.87397 16.3062 6.87397 18.661 7.15447 20.9906H3.893ZM5.33085 24.4976H7.78572C8.1973 26.0614 8.78558 27.5733 9.5392 29.004C7.81956 27.8326 6.38206 26.2932 5.33085 24.4976ZM7.78572 10.4697H5.33085C6.36693 8.67957 7.78606 7.14069 9.4866 5.96328C8.75111 7.3963 8.1805 8.90811 7.78572 10.4697ZM15.7115 30.9854C13.5578 29.405 12.0452 27.1019 11.4505 24.4976H15.7115V30.9854ZM15.7115 20.9906H10.6965C10.3693 18.6641 10.3693 16.3032 10.6965 13.9767H15.7115V20.9906ZM15.7115 10.4697H11.4505C12.0452 7.8654 13.5578 5.5623 15.7115 3.98185V10.4697ZM29.599 10.4697H27.1441C26.7326 8.9059 26.1443 7.39402 25.3907 5.96328C27.1103 7.13473 28.5478 8.67406 29.599 10.4697ZM19.2184 3.98185C21.3721 5.5623 22.8847 7.8654 23.4794 10.4697H19.2184V3.98185ZM19.2184 30.9854V24.4976H23.4794C22.8847 27.1019 21.3721 29.405 19.2184 30.9854ZM24.2334 20.9906H19.2184V13.9767H24.2334C24.5606 16.3032 24.5606 18.6641 24.2334 20.9906ZM25.4433 29.004C26.1969 27.5733 26.7852 26.0614 27.1967 24.4976H29.6516C28.6004 26.2932 27.1629 27.8326 25.4433 29.004ZM31.0369 20.9906H27.7754C27.918 19.8271 27.9883 18.6559 27.9858 17.4836C27.9877 16.3114 27.9175 15.1402 27.7754 13.9767H31.0369C31.6449 16.2751 31.6449 18.6922 31.0369 20.9906Z" fill="#343434"/>
</svg>
