<svg width="35" height="28" viewBox="0 0 35 28" fill="none" xmlns="http://www.w3.org/2000/svg">
<path d="M31.1396 5.02708L32.79 3.37669C31.8083 2.31206 30.6167 1.46238 29.2903 0.881211C27.9639 0.300043 26.5315 0 25.0833 0C23.6352 0 22.2028 0.300043 20.8764 0.881211C19.55 1.46238 18.3584 2.31206 17.3767 3.37669L19.0271 5.02708C19.7917 4.17912 20.7259 3.50117 21.7692 3.03714C22.8125 2.57311 23.9415 2.33333 25.0833 2.33333C26.2252 2.33333 27.3542 2.57311 28.3975 3.03714C29.4408 3.50117 30.3749 4.17912 31.1396 5.02708Z" fill="#343434"/>
<path d="M20.6803 6.68027L22.3355 8.33548C22.6624 7.91926 23.0795 7.58275 23.5555 7.35135C24.0315 7.11995 24.5538 6.99971 25.0831 6.99971C25.6123 6.99971 26.1346 7.11995 26.6106 7.35135C27.0866 7.58275 27.5037 7.91926 27.8306 8.33548L29.4858 6.68027C28.9394 6.04832 28.2633 5.54141 27.5036 5.19396C26.7438 4.84652 25.9182 4.66669 25.0828 4.66669C24.2473 4.66669 23.4217 4.84652 22.6619 5.19396C21.9022 5.54141 21.2261 6.04832 20.6797 6.68027H20.6803Z" fill="#343434"/>
<path d="M33.25 15.75H26.25V11.0833H23.9167V15.75H1.75C1.28604 15.7505 0.841232 15.9351 0.51316 16.2631C0.185088 16.5912 0.000540345 17.036 0 17.5V25.6666C0.000540345 26.1306 0.185088 26.5754 0.51316 26.9035C0.841232 27.2316 1.28604 27.4161 1.75 27.4166H33.25C33.714 27.4161 34.1588 27.2316 34.4868 26.9035C34.8149 26.5754 34.9995 26.1306 35 25.6666V17.5C34.9995 17.036 34.8149 16.5912 34.4868 16.2631C34.1588 15.9351 33.714 15.7505 33.25 15.75ZM32.6667 25.0833H2.33333V18.0833H32.6667V25.0833Z" fill="#343434"/>
<path d="M8.16659 20.4167H5.83325V22.75H8.16659V20.4167Z" fill="#343434"/>
<path d="M14.0001 20.4167H11.6667V22.75H14.0001V20.4167Z" fill="#343434"/>
<path d="M19.8333 20.4167H17.5V22.75H19.8333V20.4167Z" fill="#343434"/>
</svg>
