<svg width="85" height="98" viewBox="0 0 85 98" fill="none" xmlns="http://www.w3.org/2000/svg">
<path d="M42.5 48.5714C55.9141 48.5714 66.7857 37.6998 66.7857 24.2857C66.7857 10.8717 55.9141 0 42.5 0C29.0859 0 18.2143 10.8717 18.2143 24.2857C18.2143 37.6998 29.0859 48.5714 42.5 48.5714ZM60.6763 54.7567L51.6071 91.0714L45.5357 65.2679L51.6071 54.6429H33.3929L39.4643 65.2679L33.3929 91.0714L24.3237 54.7567C10.7958 55.4018 0 66.4632 0 80.1429V88.0357C0 93.0636 4.07924 97.1429 9.10714 97.1429H75.8929C80.9208 97.1429 85 93.0636 85 88.0357V80.1429C85 66.4632 74.2042 55.4018 60.6763 54.7567Z" fill="#2EE89A"/>
</svg>
