<svg width="35" height="27" viewBox="0 0 35 27" fill="none" xmlns="http://www.w3.org/2000/svg">
<path d="M24.9437 17.0051C22.8973 15.186 20.2545 14.1812 17.5165 14.1812C14.7785 14.1812 12.1357 15.186 10.0893 17.0051C9.91643 17.1547 9.77497 17.3372 9.67317 17.5419C9.57137 17.7467 9.51127 17.9696 9.49635 18.1978C9.48144 18.426 9.51201 18.6549 9.58628 18.8711C9.66056 19.0874 9.77707 19.2868 9.92904 19.4576C10.081 19.6285 10.2654 19.7675 10.4715 19.8664C10.6777 19.9654 10.9014 20.0225 11.1298 20.0343C11.3581 20.0461 11.5866 20.0124 11.8018 19.9352C12.017 19.858 12.2148 19.7388 12.3835 19.5845C13.7979 18.3275 15.6243 17.6332 17.5165 17.6332C19.4087 17.6332 21.2351 18.3275 22.6495 19.5845C22.9917 19.8887 23.4408 20.0445 23.898 20.0176C24.3551 19.9907 24.7829 19.7833 25.0871 19.4411C25.3913 19.0988 25.5471 18.6497 25.5202 18.1925C25.4933 17.7354 25.2859 17.3077 24.9437 17.0034V17.0051Z" fill="#343434"/>
<path d="M17.515 7.09175C12.8804 7.08536 8.4178 8.84688 5.03709 12.0172C4.86592 12.1705 4.72709 12.3564 4.62874 12.5641C4.53039 12.7718 4.47449 12.997 4.46433 13.2266C4.45418 13.4562 4.48996 13.6855 4.56958 13.901C4.6492 14.1166 4.77106 14.3141 4.92802 14.4819C5.08497 14.6498 5.27386 14.7846 5.48361 14.8785C5.69335 14.9724 5.91973 15.0234 6.14947 15.0287C6.3792 15.0339 6.60768 14.9932 6.82149 14.909C7.03529 14.8248 7.23013 14.6987 7.39458 14.5382C10.1396 11.9718 13.7571 10.5442 17.515 10.5442C21.2729 10.5442 24.8904 11.9718 27.6354 14.5382C27.7999 14.6987 27.9947 14.8248 28.2085 14.909C28.4223 14.9932 28.6508 15.0339 28.8805 15.0287C29.1103 15.0234 29.3367 14.9724 29.5464 14.8785C29.7561 14.7846 29.945 14.6498 30.102 14.4819C30.2589 14.3141 30.3808 14.1166 30.4604 13.901C30.5401 13.6855 30.5758 13.4562 30.5657 13.2266C30.5555 12.997 30.4996 12.7718 30.4013 12.5641C30.3029 12.3564 30.1641 12.1705 29.9929 12.0172C26.6122 8.84688 22.1496 7.08536 17.515 7.09175Z" fill="#343434"/>
<path d="M34.4253 6.44732C29.7713 2.29489 23.7523 0 17.5151 0C11.278 0 5.25895 2.29489 0.605028 6.44732C0.43012 6.59673 0.286837 6.77959 0.183601 6.98515C0.0803649 7.19072 0.0192569 7.41485 0.00386745 7.64437C-0.011522 7.87388 0.0191177 8.10416 0.0939863 8.32167C0.168855 8.53918 0.286442 8.73953 0.439838 8.91095C0.593234 9.08237 0.779345 9.2214 0.987235 9.31988C1.19513 9.41835 1.4206 9.47428 1.65041 9.48438C1.88022 9.49448 2.10974 9.45854 2.32546 9.37868C2.54119 9.29882 2.73878 9.17665 2.90662 9.01935C6.92752 5.43329 12.127 3.45152 17.5147 3.45152C22.9025 3.45152 28.1019 5.43329 32.1229 9.01935C32.4641 9.32456 32.9127 9.48169 33.3698 9.45618C33.827 9.43067 34.2553 9.2246 34.5605 8.88331C34.8657 8.54202 35.0228 8.09346 34.9973 7.63632C34.9718 7.17917 34.7657 6.75089 34.4244 6.44568L34.4253 6.44732Z" fill="#343434"/>
<path d="M17.5152 26.9602C18.9679 26.9602 20.1455 25.7826 20.1455 24.3299C20.1455 22.8771 18.9679 21.6995 17.5152 21.6995C16.0624 21.6995 14.8848 22.8771 14.8848 24.3299C14.8848 25.7826 16.0624 26.9602 17.5152 26.9602Z" fill="#343434"/>
</svg>
