<svg width="21" height="17" viewBox="0 0 21 17" fill="none" xmlns="http://www.w3.org/2000/svg">
<path d="M6.8335 2.07617H1.3335M4.0835 14.9095H1.3335M2.25016 8.49284H1.3335M13.6077 2.26867L14.9002 4.85367C15.0743 5.21117 15.5418 5.55034 15.936 5.62367L18.2735 6.00867C19.7677 6.25617 20.116 7.33784 19.0435 8.41951L17.2193 10.2437C16.9168 10.5462 16.7427 11.142 16.8435 11.5728L17.366 13.8278C17.7785 15.6062 16.8252 16.3028 15.2577 15.3678L13.0668 14.0662C12.6727 13.8278 12.0127 13.8278 11.6185 14.0662L9.42766 15.3678C7.86016 16.2937 6.90683 15.6062 7.31933 13.8278L7.84183 11.5728C7.94266 11.1512 7.7685 10.5553 7.466 10.2437L5.64183 8.41951C4.56933 7.34701 4.91766 6.26534 6.41183 6.00867L8.74933 5.62367C9.1435 5.55951 9.611 5.21117 9.78516 4.85367L11.0777 2.26867C11.7652 0.866172 12.9018 0.866172 13.6077 2.26867Z" stroke="white" stroke-linecap="round" stroke-linejoin="round"/>
</svg>
