<svg width="20" height="19" viewBox="0 0 20 19" fill="none" xmlns="http://www.w3.org/2000/svg">
<path d="M9.02292 13.2676V15.1284C9.02292 16.7051 7.55625 17.9792 5.75042 17.9792C3.94458 17.9792 2.46875 16.7051 2.46875 15.1284V13.2676C2.46875 14.8442 3.93542 15.9626 5.75042 15.9626C7.55625 15.9626 9.02292 14.8351 9.02292 13.2676Z" stroke="white" stroke-linecap="round" stroke-linejoin="round"/>
<path d="M9.02085 10.7469C9.02085 11.2053 8.89252 11.6269 8.67252 11.9936C8.13169 12.8828 7.02252 13.4419 5.73919 13.4419C4.45585 13.4419 3.34669 12.8736 2.80585 11.9936C2.58585 11.6269 2.45752 11.2053 2.45752 10.7469C2.45752 9.95861 2.82419 9.25277 3.41085 8.73944C4.00669 8.21694 4.82252 7.90527 5.73002 7.90527C6.63752 7.90527 7.45335 8.22611 8.04919 8.73944C8.65419 9.24361 9.02085 9.95861 9.02085 10.7469Z" stroke="white" stroke-linecap="round" stroke-linejoin="round"/>
<path d="M9.02292 10.7469V13.2678C9.02292 14.8444 7.55625 15.9628 5.75042 15.9628C3.94458 15.9628 2.46875 14.8353 2.46875 13.2678V10.7469C2.46875 9.17026 3.93542 7.89609 5.75042 7.89609C6.65792 7.89609 7.47375 8.21693 8.06958 8.73026C8.65625 9.24359 9.02292 9.95859 9.02292 10.7469ZM19.3336 7.86859V9.75693C19.3336 10.2611 18.9303 10.6736 18.4169 10.6919H16.6203C15.6303 10.6919 14.7227 9.96776 14.6402 8.97776C14.5852 8.40026 14.8052 7.85943 15.1902 7.48359C15.5294 7.13526 15.9969 6.93359 16.5103 6.93359H18.4169C18.9303 6.95193 19.3336 7.36443 19.3336 7.86859Z" stroke="white" stroke-linecap="round" stroke-linejoin="round"/>
<path d="M1 7.43717V5.60384C1 3.11051 2.50333 1.36884 4.84083 1.07551C5.07917 1.03884 5.32667 1.02051 5.58333 1.02051H13.8333C14.0717 1.02051 14.3008 1.02967 14.5208 1.06634C16.8858 1.34134 18.4167 3.09217 18.4167 5.60384V6.93301H16.51C15.9967 6.93301 15.5292 7.13467 15.19 7.48301C14.805 7.85884 14.585 8.39967 14.64 8.97717C14.7225 9.96717 15.63 10.6913 16.62 10.6913H18.4167V12.0205C18.4167 14.7705 16.5833 16.6038 13.8333 16.6038H11.5417" stroke="white" stroke-linecap="round" stroke-linejoin="round"/>
</svg>
