<svg width="26" height="26" viewBox="0 0 26 26" fill="none" xmlns="http://www.w3.org/2000/svg">
<path d="M25 25L22.6 22.6M12.4 23.8C13.8971 23.8 15.3795 23.5051 16.7626 22.9322C18.1457 22.3593 19.4024 21.5196 20.461 20.461C21.5196 19.4024 22.3593 18.1457 22.9322 16.7626C23.5051 15.3795 23.8 13.8971 23.8 12.4C23.8 10.9029 23.5051 9.42052 22.9322 8.03741C22.3593 6.6543 21.5196 5.39757 20.461 4.33898C19.4024 3.28039 18.1457 2.44068 16.7626 1.86777C15.3795 1.29487 13.8971 1 12.4 1C9.37653 1 6.4769 2.20107 4.33898 4.33898C2.20107 6.4769 1 9.37653 1 12.4C1 15.4235 2.20107 18.3231 4.33898 20.461C6.4769 22.5989 9.37653 23.8 12.4 23.8Z" stroke="#C9C9C9" stroke-linecap="round" stroke-linejoin="round"/>
</svg>
