<svg width="212" height="24" viewBox="0 0 212 24" fill="none" xmlns="http://www.w3.org/2000/svg">
<g clip-path="url(#clip0_120_219)">
<path d="M14.3331 19.7101L20.6988 15.9656V13.2467L14.3723 16.9177V12.6293L17.9073 10.6123L20.6988 8.9568V5.8443L18.0728 4.28996L12.1588 7.79318L9.11332 5.98909L9.03482 5.94388L6.2449 4.28996L3.61886 5.84583V15.9656L9.93145 19.7101V24L5.91394 21.6129L0 18.1098V3.70162L6.2449 0.00153213L9.53283 1.9481V1.94963L12.1588 3.5055L14.9503 1.85004L18.0728 0L21.3607 1.9481V1.94963L24.3176 3.69932V18.1113L14.3331 24V19.7101Z" fill="#F4B800"/>
<path d="M33.0012 4.00928H37.7519L41.7818 13.963H41.9678L45.9977 4.00928H50.7484V20.0859H47.0129V10.2107H46.8812L43.0683 19.9838H40.6813L36.8684 10.1557H36.7367V20.0859H33.0012V4.00928Z" fill="#EEEEEE"/>
<path d="M53.1411 20.0859V4.00928H64.2079V7.16495H56.9773V10.4619H63.6424V13.6254H56.9773V16.9302H64.2079V20.0859H53.1411Z" fill="#EEEEEE"/>
<path d="M72.4771 20.0859H66.6104V4.00928H72.469C74.0865 4.00928 75.4788 4.33112 76.6461 4.97482C77.8189 5.61327 78.723 6.53432 79.359 7.73799C79.9944 8.93641 80.3118 10.3703 80.3118 12.0397C80.3118 13.7144 79.9944 15.1535 79.359 16.3571C78.7286 17.5608 77.827 18.4844 76.6542 19.1281C75.4813 19.7666 74.089 20.0859 72.4771 20.0859ZM70.4463 16.7732H72.3294C73.2185 16.7732 73.9699 16.6214 74.5847 16.3179C75.2051 16.0091 75.6721 15.5094 75.9876 14.8186C76.3081 14.1226 76.4684 13.1963 76.4684 12.0397C76.4684 10.8832 76.3081 9.96209 75.9876 9.27658C75.6671 8.58575 75.1945 8.08858 74.5691 7.7851C73.9493 7.47632 73.1848 7.3219 72.2751 7.3219H70.4463V16.7732Z" fill="#EEEEEE"/>
<path d="M86.3881 4.00928V20.0859H82.5515V4.00928H86.3881Z" fill="#EEEEEE"/>
<path d="M92.2293 20.0859H88.1066L93.4614 4.00928H98.5688L103.924 20.0859H99.8009L96.0734 8.05984H95.9493L92.2293 20.0859ZM91.6794 13.7588H100.297V16.7104H91.6794V13.7588Z" fill="#EEEEEE"/>
<path d="M110.321 20.0859V4.00928H116.94C118.128 4.00928 119.123 4.17936 119.923 4.51952C120.73 4.85968 121.334 5.33591 121.737 5.9482C122.145 6.56047 122.349 7.26961 122.349 8.0755C122.349 8.68782 122.222 9.2347 121.969 9.71615C121.716 10.1924 121.367 10.5875 120.923 10.9015C120.479 11.2155 119.965 11.4353 119.381 11.5609V11.7179C120.021 11.7493 120.613 11.9246 121.155 12.2438C121.703 12.5631 122.143 13.0079 122.473 13.5783C122.803 14.1435 122.969 14.8133 122.969 15.5879C122.969 16.4513 122.752 17.2232 122.318 17.9036C121.884 18.5787 121.257 19.1125 120.435 19.5049C119.614 19.8922 118.616 20.0859 117.444 20.0859H110.321ZM114.158 16.9537H116.529C117.361 16.9537 117.973 16.7941 118.366 16.4749C118.764 16.1557 118.963 15.7108 118.963 15.1404C118.963 14.727 118.867 14.3711 118.676 14.0728C118.484 13.7693 118.213 13.5364 117.862 13.3742C117.51 13.2067 117.089 13.123 116.599 13.123H114.158V16.9537ZM114.158 10.6189H116.281C116.699 10.6189 117.071 10.5483 117.397 10.4069C117.722 10.2656 117.975 10.0616 118.156 9.79466C118.342 9.52775 118.436 9.2059 118.436 8.8291C118.436 8.29005 118.247 7.8662 117.869 7.55742C117.492 7.24864 116.983 7.09428 116.343 7.09428H114.158V10.6189Z" fill="#EEEEEE"/>
<path d="M134.415 4.00928H138.244V14.379C138.244 15.5774 137.962 16.6214 137.399 17.5111C136.836 18.3955 136.051 19.081 135.043 19.5677C134.036 20.0492 132.865 20.2899 131.533 20.2899C130.184 20.2899 129.006 20.0492 127.999 19.5677C126.991 19.081 126.209 18.3955 125.65 17.5111C125.092 16.6214 124.814 15.5774 124.814 14.379V4.00928H128.65V14.0414C128.65 14.5962 128.769 15.0907 129.006 15.525C129.249 15.9594 129.587 16.2995 130.021 16.5455C130.455 16.7915 130.959 16.9145 131.533 16.9145C132.106 16.9145 132.607 16.7915 133.036 16.5455C133.47 16.2995 133.809 15.9594 134.051 15.525C134.294 15.0907 134.415 14.5962 134.415 14.0414V4.00928Z" fill="#EEEEEE"/>
<path d="M144.484 4.00928V20.0859H140.648V4.00928H144.484Z" fill="#EEEEEE"/>
<path d="M146.893 20.0859V4.00928H150.729V16.9302H157.332V20.0859H146.893Z" fill="#EEEEEE"/>
<path d="M165.184 20.0859H159.318V4.00928H165.177C166.793 4.00928 168.186 4.33112 169.354 4.97482C170.527 5.61327 171.431 6.53432 172.066 7.73799C172.701 8.93641 173.019 10.3703 173.019 12.0397C173.019 13.7144 172.701 15.1535 172.066 16.3571C171.436 17.5608 170.534 18.4844 169.361 19.1281C168.189 19.7666 166.796 20.0859 165.184 20.0859ZM163.154 16.7732H165.037C165.926 16.7732 166.678 16.6214 167.292 16.3179C167.912 16.0091 168.38 15.5094 168.695 14.8186C169.015 14.1226 169.175 13.1963 169.175 12.0397C169.175 10.8832 169.015 9.96209 168.695 9.27658C168.375 8.58575 167.902 8.08858 167.277 7.7851C166.657 7.47632 165.892 7.3219 164.983 7.3219H163.154V16.7732Z" fill="#EEEEEE"/>
<path d="M179.095 4.00928V20.0859H175.259V4.00928H179.095Z" fill="#EEEEEE"/>
<path d="M195.011 4.00928V20.0859H191.756L185.44 10.8073H185.34V20.0859H181.504V4.00928H184.805L191.051 13.2721H191.183V4.00928H195.011Z" fill="#EEEEEE"/>
<path d="M207.839 9.26092C207.751 8.93123 207.622 8.64077 207.452 8.38959C207.281 8.13317 207.072 7.91597 206.824 7.73806C206.576 7.56014 206.292 7.42669 205.972 7.3377C205.651 7.24353 205.3 7.19641 204.918 7.19641C204.148 7.19641 203.481 7.38481 202.918 7.76161C202.36 8.13841 201.929 8.68789 201.624 9.41004C201.319 10.127 201.167 10.9983 201.167 12.0241C201.167 13.055 201.314 13.9342 201.608 14.6616C201.903 15.3891 202.329 15.9438 202.887 16.3258C203.445 16.7079 204.122 16.8989 204.918 16.8989C205.621 16.8989 206.214 16.7837 206.7 16.5534C207.191 16.3179 207.563 15.9857 207.816 15.5565C208.069 15.1274 208.196 14.6224 208.196 14.0415L208.909 14.1279H205.05V11.294H211.893V13.4214C211.893 14.8605 211.59 16.093 210.986 17.1186C210.386 18.1444 209.56 18.932 208.506 19.4814C207.457 20.031 206.25 20.3057 204.887 20.3057C203.373 20.3057 202.042 19.9734 200.896 19.3088C199.749 18.6442 198.855 17.6969 198.214 16.4671C197.573 15.2321 197.253 13.7667 197.253 12.0712C197.253 10.7524 197.447 9.58277 197.835 8.56227C198.222 7.53658 198.762 6.66785 199.454 5.95612C200.152 5.24439 200.957 4.70537 201.872 4.33904C202.792 3.97271 203.781 3.78955 204.84 3.78955C205.76 3.78955 206.615 3.923 207.405 4.1899C208.201 4.45679 208.904 4.83358 209.513 5.32028C210.128 5.80697 210.627 6.38521 211.009 7.05513C211.391 7.72498 211.629 8.4602 211.722 9.26092H207.839Z" fill="#EEEEEE"/>
</g>
<defs>
<clipPath id="clip0_120_219">
<rect width="212" height="24" fill="white"/>
</clipPath>
</defs>
</svg>
