<svg width="18" height="21" viewBox="0 0 18 21" fill="none" xmlns="http://www.w3.org/2000/svg">
<path d="M13.1247 2.83337C14.8012 2.83337 16.1494 4.33796 16.1494 6.18754C16.1494 7.99879 14.8531 9.47462 13.237 9.54171C13.1624 9.53212 13.087 9.53212 13.0123 9.54171M14.7926 18.1667C15.4148 18.023 16.0024 17.745 16.4864 17.333C17.8345 16.2117 17.8345 14.3621 16.4864 13.2409C16.0111 12.8384 15.4321 12.57 14.8185 12.4167M6.85923 9.41712C6.77281 9.40754 6.66911 9.40754 6.57405 9.41712C5.58212 9.37978 4.64226 8.91576 3.95348 8.12334C3.2647 7.33091 2.88111 6.27231 2.88392 5.17171C2.88392 2.82379 4.59504 0.916708 6.72096 0.916708C7.73746 0.896375 8.71961 1.32466 9.45135 2.10735C10.1831 2.89004 10.6045 3.96302 10.6228 5.09025C10.6411 6.21747 10.2549 7.30661 9.54912 8.11806C8.84332 8.9295 7.87573 9.39679 6.85923 9.41712ZM2.53825 12.9534C0.446887 14.5059 0.446887 17.0359 2.53825 18.5788C4.91479 20.3421 8.81232 20.3421 11.1889 18.5788C13.2802 17.0263 13.2802 14.4963 11.1889 12.9534C8.82096 11.1996 4.92343 11.1996 2.53825 12.9534Z" stroke="#C9C9C9" stroke-linecap="round" stroke-linejoin="round"/>
</svg>
