<svg width="19" height="19" viewBox="0 0 19 19" fill="none" xmlns="http://www.w3.org/2000/svg">
<path d="M18.3109 13.7662C18.3109 14.5912 18.0949 15.3703 17.706 16.0303C17.3407 16.6816 16.822 17.221 16.2008 17.5954C15.5796 17.9699 14.8773 18.1666 14.1628 18.1662C12.6505 18.1662 11.3282 17.3045 10.6196 16.0303C10.2393 15.3703 10.0146 14.5912 10.0146 13.7662C10.0368 12.6148 10.4836 11.5185 11.2591 10.7125C12.0346 9.9065 13.0771 9.45508 14.1628 9.45508C15.2485 9.45508 16.291 9.9065 17.0665 10.7125C17.842 11.5185 18.2888 12.6148 18.3109 13.7662Z" stroke="#C9C9C9" stroke-miterlimit="10" stroke-linecap="round" stroke-linejoin="round"/>
<path d="M12.5469 13.7662L13.5666 14.8479L15.779 12.6846" stroke="#C9C9C9" stroke-linecap="round" stroke-linejoin="round"/>
<path d="M18.3113 5.96596C18.3113 7.7718 17.8706 9.3668 17.1792 10.751C16.7921 10.3142 16.3248 9.96616 15.8061 9.72812C15.2874 9.49007 14.7283 9.36711 14.1631 9.3668C11.873 9.3668 10.015 11.3376 10.015 13.7668C10.015 14.8943 10.4212 15.921 11.078 16.7001C10.7582 16.856 10.4644 16.9843 10.2051 17.076C9.9113 17.186 9.42734 17.186 9.13352 17.076C6.62734 16.1685 1.02734 12.3826 1.02734 5.96596C1.02734 3.13346 3.1792 0.841797 5.83228 0.841797C7.39648 0.841797 8.79648 1.64846 9.66932 2.88596C10.1151 2.25238 10.694 1.73774 11.3601 1.3829C12.0261 1.02806 12.761 0.842792 13.5064 0.841797C16.1594 0.841797 18.3113 3.13346 18.3113 5.96596Z" stroke="#C9C9C9" stroke-linecap="round" stroke-linejoin="round"/>
</svg>
