<svg width="24" height="24" viewBox="0 0 24 24" fill="none" xmlns="http://www.w3.org/2000/svg">
<circle cx="12.0002" cy="12.0002" r="9.84" fill="white"/>
<path d="M2.1001 11.9995C2.1001 16.0533 4.53775 19.5358 8.02594 21.067C7.99809 20.3757 8.02099 19.5458 8.19825 18.7936C8.38859 17.99 9.47207 13.3992 9.47207 13.3992C9.47207 13.3992 9.15582 12.7671 9.15582 11.8329C9.15582 10.3658 10.0061 9.27011 11.0651 9.27011C11.9656 9.27011 12.4006 9.94646 12.4006 10.7564C12.4006 11.6616 11.8233 13.0156 11.5263 14.2697C11.2783 15.3198 12.0529 16.1764 13.0889 16.1764C14.9646 16.1764 16.2279 13.7673 16.2279 10.9129C16.2279 8.74318 14.7665 7.11916 12.1085 7.11916C9.10547 7.11916 7.23465 9.35866 7.23465 11.8602C7.23465 12.7227 7.48895 13.3309 7.88726 13.8019C8.07041 14.0183 8.09585 14.1053 8.02957 14.3537C7.98208 14.5358 7.87303 14.9744 7.82786 15.1482C7.76197 15.3989 7.55879 15.4885 7.33218 15.396C5.949 14.8313 5.30483 13.3165 5.30483 11.6138C5.30483 8.80157 7.67658 5.42948 12.3802 5.42948C16.1599 5.42948 18.6476 8.16459 18.6476 11.1006C18.6476 14.9841 16.4885 17.8854 13.3059 17.8854C12.2371 17.8854 11.2317 17.3077 10.8873 16.6514C10.8873 16.6514 10.3126 18.9324 10.1909 19.3729C9.98098 20.1361 9.57014 20.899 9.19449 21.4936C10.1054 21.763 11.0503 21.8997 12.0002 21.8996C17.467 21.8996 21.8996 17.4672 21.8996 11.9995C21.8996 6.53198 17.467 2.09961 12.0002 2.09961C6.53286 2.09961 2.1001 6.53198 2.1001 11.9995Z" fill="#E60023"/>
</svg>
