<svg width="50" height="58" viewBox="0 0 50 58" fill="none" xmlns="http://www.w3.org/2000/svg">
<path d="M20.7581 1.64884L6.83256 6.86744C3.62326 8.06744 1 11.8628 1 15.2953V36.0302C1 39.3233 3.17674 43.6488 5.82791 45.6302L17.8279 54.5884C21.7628 57.5465 28.2372 57.5465 32.1721 54.5884L44.1721 45.6302C46.8233 43.6488 49 39.3233 49 36.0302V15.2953C49 11.8628 46.3767 8.06744 43.1674 6.86744L29.2419 1.64884C26.8698 0.783721 23.0744 0.783721 20.7581 1.64884Z" stroke="#C9C9C9" stroke-width="1.5" stroke-linecap="round" stroke-linejoin="round"/>
<path d="M24.9722 25.9004H24.6094C21.9862 25.8167 19.8931 23.6399 19.8931 20.9888C19.8931 18.2818 22.0978 16.0771 24.8048 16.0771C27.5117 16.0771 29.7164 18.2818 29.7164 20.9888C29.6885 23.6678 27.5955 25.8167 24.9722 25.9004ZM19.4187 33.7144C16.7397 35.5004 16.7397 38.4306 19.4187 40.2167C22.4606 42.2539 27.4559 42.2539 30.4978 40.2167C33.1769 38.4306 33.1769 35.5004 30.4978 33.7144C27.4838 31.6771 22.4885 31.6771 19.4187 33.7144Z" stroke="#C9C9C9" stroke-width="1.5" stroke-linecap="round" stroke-linejoin="round"/>
</svg>
