<svg width="53" height="57" viewBox="0 0 53 57" fill="none" xmlns="http://www.w3.org/2000/svg">
<path d="M1 55.3229C1 44.8114 11.3712 36.3099 24.1398 36.3099C26.7259 36.3099 29.2311 36.663 31.5748 37.3148M24.1398 28.1614C27.7121 28.1614 31.138 26.7306 33.6639 24.1837C36.1898 21.6369 37.6089 18.1826 37.6089 14.5807C37.6089 10.9789 36.1898 7.52458 33.6639 4.9777C31.138 2.43082 27.7121 1 24.1398 1C20.5676 1 17.1417 2.43082 14.6158 4.9777C12.0898 7.52458 10.6708 10.9789 10.6708 14.5807C10.6708 18.1826 12.0898 21.6369 14.6158 24.1837C17.1417 26.7306 20.5676 28.1614 24.1398 28.1614Z" stroke="#C9C9C9" stroke-width="1.5" stroke-linecap="round" stroke-linejoin="round"/>
<path d="M44.7403 44.6416H36.3823M40.5613 40.7623V48.707M51.7801 44.6948C51.7801 45.545 51.6679 46.3687 51.4436 47.1659C51.1911 48.2287 50.7424 49.265 50.1534 50.1684C49.1646 51.7427 47.7602 53.0459 46.0783 53.9498C44.3963 54.8536 42.4949 55.3269 40.5613 55.3231C37.7999 55.3308 35.1366 54.3538 33.1007 52.5863C32.2593 51.8955 31.5301 51.0718 30.9692 50.1684C29.9015 48.5221 29.3383 46.6269 29.3424 44.6948C29.3406 43.2985 29.6295 41.9157 30.1927 40.6254C30.7558 39.3351 31.5821 38.1628 32.6242 37.1755C33.6664 36.1882 34.9039 35.4054 36.2658 34.8719C37.6278 34.3384 39.0875 34.0647 40.5613 34.0664C43.8708 34.0664 46.8719 35.4215 48.8913 37.6003C50.6863 39.4869 51.7801 41.9845 51.7801 44.6948Z" stroke="#C9C9C9" stroke-width="1.5" stroke-miterlimit="10" stroke-linecap="round" stroke-linejoin="round"/>
</svg>
