<svg width="55" height="55" viewBox="0 0 55 55" fill="none" xmlns="http://www.w3.org/2000/svg">
<path d="M27.8765 39.4824V44.9799" stroke="#C9C9C9" stroke-width="1.5" stroke-linecap="round" stroke-linejoin="round"/>
<path d="M14.438 53.5311H40.7035V50.8842C40.7035 47.9726 38.3396 45.5903 35.4504 45.5903H19.6911C16.8019 45.5903 14.438 47.9726 14.438 50.8842V53.5311Z" stroke="#C9C9C9" stroke-width="1.5" stroke-miterlimit="10"/>
<path d="M11.9513 53.5311H43.3653M27.2656 37.7718C17.1346 37.7718 8.9408 29.5507 8.9408 19.3859V11.5062C8.9408 5.70153 13.6267 1 19.4121 1H35.1191C40.9045 1 45.5904 5.70153 45.5904 11.5062V19.3859C45.5904 29.5507 37.3966 37.7718 27.2656 37.7718Z" stroke="#C9C9C9" stroke-width="1.5" stroke-linecap="round" stroke-linejoin="round"/>
<path d="M10.0453 26.6544C8.06744 26.0117 6.32695 24.8336 4.95566 23.4413C2.58226 20.7637 1 17.5505 1 13.8019C1 10.0533 3.90082 7.10791 7.59276 7.10791H9.30688C8.77946 8.33961 8.51575 9.70518 8.51575 11.1243V19.1571C8.51575 21.8347 9.06954 24.3516 10.0453 26.6544ZM44.4859 26.6544C46.4637 26.0117 48.2042 24.8336 49.5755 23.4413C51.9489 20.7637 53.5311 17.5505 53.5311 13.8019C53.5311 10.0533 50.6303 7.10791 46.9384 7.10791H45.2242C45.7517 8.33961 46.0154 9.70518 46.0154 11.1243V19.1571C46.0154 21.8347 45.4616 24.3516 44.4859 26.6544Z" stroke="#C9C9C9" stroke-width="1.5" stroke-linecap="round" stroke-linejoin="round"/>
</svg>
