<svg width="65" height="65" viewBox="0 0 65 65" fill="none" xmlns="http://www.w3.org/2000/svg">
<path d="M25.7292 37.2396C25.7292 39.8667 27.7605 41.9792 30.2522 41.9792H35.3438C37.5105 41.9792 39.2709 40.1375 39.2709 37.8354C39.2709 35.3708 38.1876 34.4771 36.5897 33.9083L28.4376 31.0646C26.8397 30.4958 25.7563 29.6292 25.7563 27.1375C25.7563 24.8625 27.5167 22.9937 29.6834 22.9937H34.7751C37.2667 22.9937 39.298 25.1062 39.298 27.7333M32.5001 20.3125V44.6875" stroke="#C9C9C9" stroke-width="1.5" stroke-linecap="round" stroke-linejoin="round"/>
<path d="M59.5834 32.4998C59.5834 47.4498 47.4501 59.5832 32.5001 59.5832C17.5501 59.5832 5.41675 47.4498 5.41675 32.4998C5.41675 17.5498 17.5501 5.4165 32.5001 5.4165" stroke="#C9C9C9" stroke-width="1.5" stroke-linecap="round" stroke-linejoin="round"/>
<path d="M46.0417 8.12484V18.9582M46.0417 18.9582H56.8751M46.0417 18.9582L59.5834 5.4165" stroke="#C9C9C9" stroke-width="1.5" stroke-linecap="round" stroke-linejoin="round"/>
</svg>
