<svg width="20" height="13" viewBox="0 0 20 13" fill="none" xmlns="http://www.w3.org/2000/svg">
<path d="M19.5414 1.15978C19.6812 0.677162 19.5414 0.323242 18.8807 0.323242H16.6919C16.135 0.323242 15.8805 0.62942 15.7407 0.965695C15.7407 0.965695 14.6279 3.78771 13.0509 5.61751C12.5419 6.14994 12.3093 6.31808 12.0319 6.31808C11.8931 6.31808 11.6915 6.14995 11.6915 5.66733V1.15978C11.6915 0.580639 11.5308 0.323242 11.0667 0.323242H7.62734C7.28001 0.323242 7.07041 0.591017 7.07041 0.846338C7.07041 1.39434 7.85889 1.52096 7.93974 3.06534V6.41564C7.93974 7.14943 7.81298 7.28332 7.53352 7.28332C6.79194 7.28332 4.98741 4.45092 3.91647 1.20856C3.70787 0.578563 3.49728 0.32428 2.93835 0.32428H0.750557C0.12476 0.32428 0 0.630457 0 0.966733C0 1.57078 0.741574 4.5599 3.45436 8.51322C5.26288 11.2128 7.80899 12.6762 10.1285 12.6762C11.5189 12.6762 11.6905 12.3513 11.6905 11.7909V9.75038C11.6905 9.10066 11.8233 8.96989 12.2634 8.96989C12.5868 8.96989 13.1437 9.1401 14.4422 10.4406C15.9254 11.9829 16.1709 12.6751 17.0043 12.6751H19.1921C19.8169 12.6751 20.1293 12.3503 19.9497 11.7089C19.753 11.0706 19.0444 10.1417 18.1042 9.04254C17.5932 8.41565 16.8297 7.74103 16.5971 7.40371C16.2727 6.96884 16.3665 6.77683 16.5971 6.39074C16.5981 6.39177 19.264 2.48724 19.5414 1.15978Z" fill="#2A87F0"/>
</svg>
