<svg width="24" height="24" viewBox="0 0 24 24" fill="none" xmlns="http://www.w3.org/2000/svg">
<path d="M21.4973 7.24877C21.3846 6.8307 21.1644 6.44942 20.8586 6.1429C20.5528 5.83638 20.172 5.6153 19.7542 5.50167C18.2049 5.07627 12.007 5.06934 12.007 5.06934C12.007 5.06934 5.80997 5.06242 4.25974 5.46902C3.84218 5.58788 3.46219 5.81209 3.15624 6.12011C2.8503 6.42814 2.62867 6.80964 2.51264 7.228C2.10406 8.77724 2.1001 11.9905 2.1001 11.9905C2.1001 11.9905 2.09614 15.2196 2.50175 16.753C2.72929 17.6008 3.39707 18.2706 4.24589 18.4991C5.81096 18.9245 11.9921 18.9314 11.9921 18.9314C11.9921 18.9314 18.1901 18.9383 19.7393 18.5327C20.1573 18.4193 20.5384 18.1987 20.845 17.8928C21.1516 17.5869 21.373 17.2063 21.4874 16.7886C21.897 15.2403 21.9 12.0281 21.9 12.0281C21.9 12.0281 21.9197 8.79802 21.4973 7.24877ZM10.0244 14.9673L10.0293 9.03149L15.1806 12.0043L10.0244 14.9673Z" fill="#FF0000"/>
</svg>
